PathFileType	4	(X/Y/Z)	C:/Users/opensim2020/Desktop/walking_exp_matlab/subject02_walking11_straight_04.trc																																																																																																																												
DataRate	CameraRate	NumFrames	NumMarkers	Units	OrigDataRate	OrigDataStartFrame	OrigNumFrames																																																																																																																								
100	100	6	42	mm	100	3227	227																																																																																																																								
Frame#	Time	LFHD			RFHD			LBHD			RBHD			C7			T10			CLAV			STRN			RBAK			LSHO			LUPA			LELB			LFRM			LWRA			LWRB			LFIN			RSHO			RUPA			RELB			RFRM			RWRA			RWRB			RFIN			LASI			RASI			LPSI			RPSI			LTHI			LKNE			LTIB			LANK			LHEE			LTOE			RTHI			RKNE			RTIB			RANK			RHEE			RTOE			*39			*40			*41		
		X1	Y1	Z1	X2	Y2	Z2	X3	Y3	Z3	X4	Y4	Z4	X5	Y5	Z5	X6	Y6	Z6	X7	Y7	Z7	X8	Y8	Z8	X9	Y9	Z9	X10	Y10	Z10	X11	Y11	Z11	X12	Y12	Z12	X13	Y13	Z13	X14	Y14	Z14	X15	Y15	Z15	X16	Y16	Z16	X17	Y17	Z17	X18	Y18	Z18	X19	Y19	Z19	X20	Y20	Z20	X21	Y21	Z21	X22	Y22	Z22	X23	Y23	Z23	X24	Y24	Z24	X25	Y25	Z25	X26	Y26	Z26	X27	Y27	Z27	X28	Y28	Z28	X29	Y29	Z29	X30	Y30	Z30	X31	Y31	Z31	X32	Y32	Z32	X33	Y33	Z33	X34	Y34	Z34	X35	Y35	Z35	X36	Y36	Z36	X37	Y37	Z37	X38	Y38	Z38	X39	Y39	Z39	X40	Y40	Z40	X41	Y41	Z41	X42	Y42	Z42
																																																																																																																															
1	0	-761.28589	1727.95032	952.26215	-781.74707	1703.59192	1093.59607	-892.28882	1659.0863	923.12341	-924.54065	1634.00574	1060.96448	-959.10931	1513.4541	979.3042	-1010.01099	1236.34644	981.1261	-820.1637	1445.00366	987.12885	-767.11316	1275.31616	1003.47015	-1024.41406	1337.17346	1032.62463	-862.3584	1488.21802	809.13751	-852.61414	1283.37219	729.24487	-842.69586	1141.97302	720.72522	-819.93732	1011.50476	715.08429	-762.74365	892.55737	761.80481	-799.57013	890.27106	719.50598	-773.5658	830.24542	719.7663	-911.40802	1475.29944	1174.901	-962.94659	1285.17407	1247.72913	-961.38458	1140.71704	1267.25281	-945.58728	1024.30164	1298.20911	-900.19836	895.26202	1298.9917	-954.34338	895.30664	1315.41687	-923.10272	830.72363	1330.5238	-765.55664	966.69226	877.17181	-775.3136	977.12061	1131.71399	-977.72827	1016.65283	946.21576	-990.16718	1023.91907	1062.08801	-885.76263	665.60138	820.59479	-955.88239	481.13751	837.32471	-1099.5647	350.15854	830.97791	-1210.56958	150.20093	850.07727	-1252.40125	145.36046	900.84137	-1096.37109	37.72598	857.18353	-792.27588	678.20898	1208.802	-745.68378	474.3157	1167.15552	-766.56439	285.98093	1167.71875	-761.94165	94.75341	1129.14441	-786.56207	42.31219	1068.82092	-609.88794	43.03723	1159.09045	-871.64752	1793.96851	1031.18372	-2846.00415	1034.25574	3357.14453	NaN	NaN	NaN
2	0.01	-753.84631	1729.40271	955.6062	-774.33289	1704.56726	1096.89697	-884.86462	1660.6488	926.22388	-916.98743	1634.9552	1064.00854	-951.724	1514.35779	982.45557	-1001.48566	1237.08313	985.32202	-812.10059	1446.42212	990.02802	-758.6521	1276.77942	1006.57574	-1015.79297	1337.87891	1036.2832	-855.08899	1489.48901	812.28131	-847.47058	1284.5564	732.71118	-840.11279	1143.38586	724.48199	-821.29675	1012.5694	717.22113	-767.17035	891.07947	761.78223	-804.8634	890.98871	719.3847	-780.77502	829.67249	719.3028	-903.05951	1477.11035	1177.81641	-952.71844	1286.72339	1251.47437	-950.0177	1142.33411	1270.93152	-933.79315	1026.00659	1301.65356	-888.30829	896.90515	1302.59167	-942.29297	897.12219	1319.37036	-911.02148	832.4184	1334.18726	-756.0061	968.14972	881.73846	-766.07477	979.0318	1135.94275	-968.88599	1017.4364	950.04272	-980.95007	1024.39587	1066.04919	-873.10858	665.24146	823.28888	-940.18921	481.13202	838.1582	-1086.18848	353.87848	832.08569	-1202.13416	157.17947	850.38666	-1242.99072	154.1301	901.86414	-1095.60144	37.86615	857.33624	-783.23486	678.17084	1211.66565	-741.3656	473.535	1168.96741	-765.02338	285.47659	1168.02148	-761.40259	94.64412	1128.90466	-786.49921	42.34679	1068.67151	-609.26672	42.66722	1158.80042	-864.25928	1795.16199	1034.84863	-2845.82056	1034.26221	3357.28003	NaN	NaN	NaN
3	0.02	-746.20953	1730.90137	959.19843	-766.96881	1705.6864	1100.09033	-877.2782	1662.1571	929.33014	-909.5213	1635.9375	1066.95349	-943.53064	1515.24182	985.43597	-992.93713	1237.88452	989.56268	-804.1192	1447.72559	992.90393	-750.23175	1278.30688	1009.54443	-1007.27045	1338.74158	1040.08069	-847.94574	1490.84631	815.29578	-842.26569	1285.85046	736.03009	-837.55359	1144.84338	728.32623	-822.80109	1013.95392	719.41376	-771.81451	890.27942	761.93243	-809.52863	891.70862	719.7301	-787.89423	829.56409	718.75891	-894.7179	1479.07605	1180.62964	-942.51294	1288.41528	1255.24524	-938.64313	1144.06628	1274.56653	-921.87579	1027.8269	1305.22827	-876.14008	898.81555	1306.13037	-930.02209	898.96515	1323.16797	-898.65845	834.2312	1337.94409	-747.60718	969.57892	886.69287	-757.22314	980.67542	1140.09436	-960.40436	1018.38007	953.8559	-972.02216	1024.94177	1070.04688	-860.52075	665.09735	825.60425	-923.93689	480.89957	839.09723	-1071.86694	357.34668	833.39392	-1192.33875	164.00478	850.79004	-1232.17944	162.79854	902.92865	-1094.29309	38.10302	857.88641	-775.8053	678.78296	1214.22144	-737.38544	473.08569	1170.30505	-763.06927	285.16174	1168.89331	-760.9433	94.59895	1128.83459	-786.50269	42.36841	1068.59192	-608.79181	42.36392	1158.52698	-856.9798	1796.30298	1038.27551	-2845.85327	1034.17139	3357.22607	NaN	NaN	NaN
4	0.03	-739.19806	1732.52844	962.03564	-759.64203	1706.97778	1103.17041	-869.7699	1663.28162	932.31213	-902.05518	1636.9928	1069.84912	-935.78119	1516.29749	988.68628	-984.43829	1238.72571	993.81628	-796.17273	1449.34583	995.6272	-741.88147	1279.84558	1012.401	-998.77582	1339.72986	1043.96497	-840.82269	1492.10852	818.26569	-837.10553	1287.30225	739.22412	-835.36945	1146.55176	731.89587	-824.07489	1015.61621	721.50293	-775.99774	889.69049	762.2085	-814.09283	893.24677	720.21161	-794.68732	829.95795	718.55585	-886.17395	1481.04272	1183.52954	-932.26532	1290.08057	1258.87097	-927.25739	1145.8197	1278.18054	-909.88855	1029.89551	1309.07813	-863.71851	900.81854	1309.59924	-917.56934	900.94861	1327.06897	-886.01135	836.23975	1341.78735	-739.4245	971.04803	891.18915	-748.66718	982.13727	1144.02356	-952.40527	1019.60901	957.74402	-963.19141	1025.79285	1073.99109	-847.71619	664.61902	827.88403	-907.42877	480.53781	840.18018	-1056.86047	360.66354	835.05231	-1180.97925	170.51547	851.30225	-1220.32593	171.27357	904.05981	-1092.41772	38.24683	858.34723	-769.86389	679.49377	1216.62573	-733.57568	473.08707	1171.8147	-760.57813	285.25061	1170.30273	-760.55225	94.64182	1128.98438	-786.66693	42.48349	1068.6228	-608.50293	42.18425	1158.24976	-849.8432	1797.46143	1041.49475	-2845.90356	1034.2533	3357.24341	NaN	NaN	NaN
5	0.04	-731.87006	1734.06311	965.10309	-752.27612	1708.32849	1106.17651	-862.32544	1664.61084	935.09363	-894.5495	1638.05493	1072.65405	-927.91376	1517.40613	991.93646	-976.17334	1239.73413	998.0022	-788.18878	1450.76025	998.28888	-733.57068	1281.34155	1015.22925	-990.29785	1340.76282	1047.86975	-833.74957	1493.13232	821.27216	-832.17639	1288.72729	742.2207	-833.23328	1148.16345	735.41931	-824.82855	1017.47583	723.56879	-780.16943	889.62598	762.61914	-817.91876	894.65698	721.12958	-801.10022	830.74268	718.45874	-877.49957	1482.9093	1186.36414	-922.02478	1291.76672	1262.54968	-915.89624	1147.54504	1281.83972	-897.76678	1031.75879	1312.6394	-851.11273	902.86853	1313.03271	-904.84064	902.79553	1330.78198	-873.01318	838.17126	1345.2699	-731.65674	972.44934	895.42072	-740.37372	983.35754	1147.59912	-944.69672	1020.92865	961.55298	-954.74921	1026.98914	1077.98926	-834.82654	664.16846	830.15143	-890.41351	480.16507	841.2807	-1041.00769	363.36346	836.94568	-1168.48511	176.64244	852.08606	-1207.42688	179.18251	905.45215	-1088.68201	39.48603	858.70599	-765.03113	679.62311	1218.48694	-729.91638	473.23325	1173.41479	-757.87781	285.43015	1171.7793	-760.30725	94.69818	1129.09692	-786.69312	42.35775	1068.80737	-608.37677	42.06093	1158.17419	-842.82135	1798.68188	1044.71313	-2845.15112	1034.32959	3360.25781	NaN	NaN	NaN
6	0.05	-724.74353	1735.73499	967.87354	-745.04712	1709.91589	1108.70081	-855.29022	1665.94385	937.72687	-887.0415	1639.07666	1075.33838	-920.46906	1518.5564	995.37573	-968.18054	1240.89307	1002.06122	-780.2226	1452.14282	1000.82898	-725.40582	1282.77466	1017.89313	-981.8645	1341.93701	1051.89172	-826.9953	1494.36853	824.04382	-827.43616	1290.07617	744.90253	-830.99731	1149.6051	739.03186	-825.84204	1019.2439	725.63025	-784.03174	889.53009	763.00586	-822.09326	896.4682	721.37811	-807.14282	831.68298	718.68835	-868.492	1484.6178	1189.29761	-911.70807	1293.49744	1266.57532	-904.48053	1149.01379	1285.36279	-885.54852	1033.39502	1315.9353	-838.2298	904.84558	1316.38586	-891.88434	904.54852	1334.37671	-859.71838	840.12482	1348.9917	-724.41949	973.72089	899.15057	-732.22614	984.1994	1150.7113	-937.20416	1022.27057	965.35107	-946.47205	1028.46313	1081.91724	-822.01495	663.94244	832.36853	-873.58215	480.01129	842.56158	-1024.55383	365.54816	838.05304	-1155.51843	182.53656	853.50452	-1194.31396	186.21254	907.41956	-1081.51245	42.39397	858.16272	-760.87097	679.45441	1220.12292	-726.59857	473.27896	1175.21692	-755.38611	285.52609	1173.3136	-760.01117	94.77023	1129.60999	-786.87073	42.4622	1069.05005	-608.31091	41.98702	1158.12219	-835.9411	1799.92444	1047.27173	-2845.76074	1034.2998	3357.17651	NaN	NaN	NaN
